<?xml version="1.0" encoding="UTF-8"?>
<svg xmlns="http://www.w3.org/2000/svg" xmlns:xlink="http://www.w3.org/1999/xlink" width="173px" height="173px" viewBox="0 0 173 173" version="1.1">
<g id="surface1">
<path style=" stroke:none;fill-rule:nonzero;fill:rgb(0%,0%,0%);fill-opacity:1;" d="M 40.199219 59.039062 C 34.121094 59.675781 29.386719 62.9375 26.71875 68.324219 C 25.417969 70.964844 24.820312 73.539062 24.714844 77.027344 C 24.625 79.773438 24.769531 81.285156 25.339844 83.515625 C 25.84375 85.53125 26.667969 87.441406 27.714844 89.046875 C 30.195312 92.84375 33.550781 95.136719 38.195312 96.199219 C 39.839844 96.582031 43.410156 96.675781 45.132812 96.398438 C 52.351562 95.214844 57.0625 90.148438 58.042969 82.546875 L 58.136719 81.855469 L 54.316406 81.882812 L 50.507812 81.921875 L 50.203125 83.117188 C 49.777344 84.855469 49.433594 85.691406 48.675781 86.753906 C 47.109375 88.980469 44.710938 90.070312 41.722656 89.894531 C 40.160156 89.804688 39.324219 89.605469 38.035156 88.980469 C 35.488281 87.746094 33.777344 85.265625 32.914062 81.589844 C 32.664062 80.488281 32.492188 78.089844 32.570312 76.949219 C 33.035156 70.671875 35.609375 66.839844 40.011719 65.855469 C 41.5 65.523438 43.925781 65.644531 45.121094 66.109375 C 47.695312 67.089844 49.394531 68.910156 50.015625 71.335938 L 50.160156 71.90625 L 57.84375 71.90625 L 57.765625 71.46875 C 57.257812 68.457031 56.292969 66.214844 54.605469 64.183594 C 52.628906 61.808594 49.472656 59.992188 46.101562 59.316406 C 44.535156 59.011719 41.789062 58.878906 40.199219 59.039062 Z M 40.199219 59.039062 "/>
<path style=" stroke:none;fill-rule:nonzero;fill:rgb(0%,0%,0%);fill-opacity:1;" d="M 114.28125 59.476562 C 114.253906 59.566406 114.242188 60.535156 114.253906 61.625 L 114.292969 63.613281 L 115.261719 63.65625 C 116.175781 63.695312 116.21875 63.707031 116.21875 64.027344 C 116.21875 64.796875 115.34375 65.882812 114.519531 66.136719 C 114.242188 66.214844 114.214844 66.28125 114.253906 67.171875 L 114.292969 68.125 L 114.730469 68.085938 C 115.925781 67.992188 117.570312 66.785156 118.167969 65.566406 C 118.539062 64.820312 118.539062 64.769531 118.578125 62.050781 L 118.617188 59.304688 L 116.484375 59.304688 C 114.863281 59.304688 114.335938 59.34375 114.28125 59.476562 Z M 114.28125 59.476562 "/>
<path style=" stroke:none;fill-rule:nonzero;fill:rgb(0%,0%,0%);fill-opacity:1;" d="M 120.355469 61.453125 L 120.398438 63.613281 L 121.367188 63.65625 C 122.441406 63.695312 122.507812 63.789062 122.121094 64.714844 C 121.84375 65.351562 121.5 65.710938 120.847656 66.003906 L 120.316406 66.242188 L 120.355469 67.183594 L 120.398438 68.125 L 120.835938 68.085938 C 121.445312 68.046875 122.625 67.449219 123.316406 66.839844 C 123.632812 66.558594 124.070312 65.988281 124.269531 65.566406 C 124.640625 64.820312 124.640625 64.769531 124.683594 62.050781 L 124.722656 59.304688 L 120.332031 59.304688 Z M 120.355469 61.453125 "/>
<path style=" stroke:none;fill-rule:nonzero;fill:rgb(0%,0%,0%);fill-opacity:1;" d="M 98.414062 59.964844 C 96.6875 60.257812 95.109375 61.039062 93.984375 62.167969 C 92.535156 63.613281 91.9375 65.3125 91.9375 68.085938 L 91.9375 69.652344 L 89.789062 69.675781 L 87.628906 69.71875 L 87.628906 74.492188 L 89.789062 74.535156 L 91.9375 74.558594 L 91.9375 95.785156 L 95.496094 95.761719 L 99.039062 95.71875 L 99.078125 85.132812 L 99.105469 74.558594 L 104.011719 74.558594 L 104.011719 69.652344 L 99.105469 69.652344 L 99.105469 68.417969 C 99.117188 65.816406 99.742188 65.21875 102.421875 65.261719 C 103.257812 65.261719 104.039062 65.3125 104.171875 65.351562 C 104.398438 65.417969 104.410156 65.261719 104.410156 62.710938 L 104.410156 60.007812 L 103.191406 59.914062 C 101.636719 59.808594 99.210938 59.832031 98.414062 59.964844 Z M 98.414062 59.964844 "/>
<path style=" stroke:none;fill-rule:nonzero;fill:rgb(0%,0%,0%);fill-opacity:1;" d="M 70.953125 69.132812 C 67.0625 69.542969 64.09375 71.03125 62.578125 73.339844 C 61.890625 74.386719 61.625 75.050781 61.359375 76.3125 C 61.015625 77.902344 60.628906 77.742188 64.730469 77.742188 L 68.285156 77.742188 L 68.496094 76.894531 C 68.828125 75.527344 69.597656 74.601562 70.765625 74.160156 C 72 73.699219 74.996094 73.777344 75.992188 74.28125 C 77.09375 74.851562 77.609375 75.765625 77.609375 77.1875 C 77.609375 78.316406 77.304688 78.84375 76.351562 79.363281 C 75.460938 79.851562 74.492188 80.050781 70.832031 80.515625 C 66.003906 81.140625 64.078125 81.789062 62.421875 83.34375 C 60.988281 84.667969 60.363281 86.3125 60.363281 88.675781 C 60.378906 93.519531 63.746094 96.449219 69.332031 96.449219 C 72.359375 96.449219 75.183594 95.574219 77.082031 94.035156 C 77.53125 93.675781 77.917969 93.398438 77.929688 93.425781 C 77.941406 93.453125 78.035156 93.875 78.128906 94.378906 C 78.394531 95.917969 78.023438 95.785156 82.136719 95.785156 C 85.503906 95.785156 85.730469 95.773438 85.636719 95.546875 C 85.585938 95.429688 85.414062 94.9375 85.265625 94.460938 C 85 93.636719 84.988281 93.160156 84.90625 84.378906 C 84.839844 77.96875 84.761719 74.984375 84.65625 74.574219 C 83.804688 71.390625 80.929688 69.597656 75.953125 69.121094 C 74.308594 68.972656 72.449219 68.972656 70.953125 69.132812 Z M 77.597656 85.398438 C 77.558594 86.632812 77.453125 87.8125 77.386719 88.027344 C 76.683594 90.109375 75.277344 91.25 72.992188 91.554688 C 71.761719 91.714844 70.195312 91.566406 69.265625 91.195312 C 68.097656 90.730469 67.4375 89.445312 67.570312 87.945312 C 67.660156 86.84375 68.179688 86.035156 69.121094 85.464844 C 70.101562 84.882812 70.792969 84.695312 73.300781 84.3125 C 75.34375 83.992188 77.148438 83.542969 77.292969 83.304688 C 77.332031 83.238281 77.4375 83.183594 77.519531 83.183594 C 77.636719 83.183594 77.664062 83.726562 77.597656 85.398438 Z M 77.597656 85.398438 "/>
<path style=" stroke:none;fill-rule:nonzero;fill:rgb(0%,0%,0%);fill-opacity:1;" d="M 117.144531 69.132812 C 111.667969 69.835938 107.410156 73.84375 106.1875 79.402344 C 105.894531 80.730469 105.804688 83.433594 105.988281 84.960938 C 106.71875 90.679688 110.023438 94.578125 115.355469 96.011719 C 116.5625 96.332031 116.90625 96.371094 119.136719 96.371094 C 121.789062 96.382812 122.839844 96.199219 124.722656 95.441406 C 127.5625 94.289062 129.777344 91.859375 131.023438 88.53125 L 131.34375 87.695312 L 125.039062 87.695312 L 124.683594 88.355469 C 124.484375 88.714844 124.019531 89.246094 123.660156 89.523438 C 122.347656 90.558594 121.035156 91.011719 119.269531 91.011719 C 115.632812 91.011719 113.484375 89.0625 113.101562 85.398438 L 113.007812 84.511719 L 131.714844 84.511719 L 131.792969 83.871094 C 131.898438 83.089844 131.671875 80.421875 131.394531 79.148438 C 130.824219 76.601562 129.390625 73.949219 127.679688 72.277344 C 125.09375 69.757812 121.234375 68.601562 117.144531 69.132812 Z M 121.125 74.757812 C 122.878906 75.460938 124.003906 77.027344 124.507812 79.429688 L 124.589844 79.867188 L 118.859375 79.894531 C 114.480469 79.917969 113.113281 79.894531 113.074219 79.773438 C 112.96875 79.496094 113.285156 78.289062 113.65625 77.519531 C 114.375 76.046875 115.554688 75.078125 117.160156 74.625 C 118.128906 74.359375 120.304688 74.425781 121.125 74.757812 Z M 121.125 74.757812 "/>
<path style=" stroke:none;fill-rule:nonzero;fill:rgb(0%,0%,0%);fill-opacity:1;" d="M 29.703125 100.390625 C 29.546875 100.789062 29.425781 101.132812 28.484375 103.746094 C 28.152344 104.664062 27.527344 106.375 27.078125 107.566406 C 25.417969 111.984375 24.675781 114.027344 24.675781 114.121094 C 24.675781 114.1875 47.5625 114.226562 75.527344 114.226562 L 126.367188 114.226562 L 126.75 113.125 C 127.242188 111.707031 128 109.664062 130.597656 102.660156 C 131.078125 101.359375 131.476562 100.246094 131.476562 100.164062 C 131.476562 100.074219 114.839844 100.03125 80.664062 100.03125 L 29.851562 100.03125 Z M 46.222656 101.980469 C 47.523438 102.339844 48.558594 103.546875 48.558594 104.703125 C 48.558594 104.914062 48.425781 104.941406 47.496094 104.941406 C 46.59375 104.941406 46.421875 104.902344 46.355469 104.703125 C 46.117188 103.933594 45.652344 103.613281 44.683594 103.601562 C 43.675781 103.574219 43.25 103.839844 43.25 104.476562 C 43.25 105.085938 43.703125 105.363281 45.304688 105.738281 C 47.933594 106.359375 48.820312 107.144531 48.820312 108.855469 C 48.808594 110.035156 47.8125 111.253906 46.554688 111.628906 C 45.664062 111.894531 44.03125 111.894531 43.15625 111.640625 C 41.789062 111.230469 40.730469 110.007812 40.730469 108.816406 L 40.730469 108.390625 L 41.777344 108.390625 C 42.8125 108.390625 42.824219 108.390625 42.890625 108.761719 C 43.011719 109.34375 43.476562 109.824219 44.074219 109.996094 C 44.867188 110.207031 45.996094 110.035156 46.378906 109.652344 C 47.070312 108.960938 46.59375 108.257812 45.199219 107.859375 C 42.402344 107.050781 41.789062 106.757812 41.328125 105.976562 C 40.980469 105.40625 40.980469 104.132812 41.3125 103.457031 C 41.988281 102.0625 44.179688 101.410156 46.222656 101.980469 Z M 89.152344 106.878906 L 89.152344 111.707031 L 87.296875 111.707031 L 87.296875 110.859375 L 86.925781 111.214844 C 86.0625 112.039062 84.46875 112.050781 83.355469 111.230469 C 83.117188 111.042969 82.746094 110.527344 82.507812 110.046875 C 81.417969 107.832031 82.375 105.019531 84.363281 104.542969 C 85.226562 104.34375 86.007812 104.449219 86.671875 104.886719 L 87.164062 105.207031 L 87.164062 103.640625 C 87.164062 102.777344 87.191406 102.035156 87.214844 102.007812 C 87.242188 101.980469 87.695312 101.96875 88.210938 101.996094 L 89.152344 102.046875 Z M 99.210938 102.84375 L 99.167969 103.679688 L 98.214844 103.71875 L 97.246094 103.761719 L 97.246094 102.023438 L 99.25 102.023438 Z M 58.90625 103.535156 L 58.90625 104.53125 L 59.609375 104.570312 L 60.296875 104.609375 L 60.339844 105.300781 L 60.378906 106.003906 L 58.890625 106.003906 L 58.929688 107.925781 C 58.972656 110.074219 59.011719 110.140625 59.832031 110.089844 L 60.296875 110.046875 L 60.296875 111.640625 L 59.261719 111.679688 C 58.03125 111.71875 57.433594 111.496094 57.128906 110.84375 C 56.953125 110.5 56.914062 109.929688 56.914062 108.21875 L 56.914062 106.015625 L 56.359375 105.976562 L 55.789062 105.9375 L 55.789062 104.609375 L 56.359375 104.570312 L 56.914062 104.53125 L 56.914062 102.554688 L 58.90625 102.554688 Z M 111.917969 104.609375 C 112.808594 104.875 113.472656 105.457031 113.921875 106.375 C 114.242188 107.011719 114.292969 107.289062 114.28125 108.191406 C 114.28125 109.066406 114.214844 109.371094 113.921875 109.929688 C 113.246094 111.253906 111.933594 111.933594 110.3125 111.8125 C 109.386719 111.734375 108.628906 111.386719 108.046875 110.753906 C 107.277344 109.941406 107.128906 109.519531 107.128906 108.125 C 107.128906 106.730469 107.277344 106.308594 108.046875 105.496094 C 108.972656 104.503906 110.433594 104.171875 111.917969 104.609375 Z M 69.785156 106.996094 C 69.863281 109.875 69.957031 110.113281 70.898438 110.113281 C 72.160156 110.113281 72.226562 109.980469 72.304688 106.996094 L 72.371094 104.609375 L 73.339844 104.570312 L 74.292969 104.53125 L 74.292969 111.71875 L 73.40625 111.679688 C 72.53125 111.640625 72.503906 111.628906 72.4375 111.253906 C 72.371094 110.898438 72.359375 110.886719 72.171875 111.109375 C 71.574219 111.839844 69.984375 112.050781 68.988281 111.535156 C 67.941406 111.003906 67.859375 110.753906 67.820312 107.421875 L 67.78125 104.53125 L 69.71875 104.609375 Z M 99.210938 108.152344 L 99.234375 111.707031 L 97.246094 111.707031 L 97.246094 104.53125 L 98.214844 104.570312 L 99.167969 104.609375 Z M 99.210938 108.152344 "/>
<path style=" stroke:none;fill-rule:nonzero;fill:rgb(0%,0%,0%);fill-opacity:1;" d="M 84.894531 106.226562 C 84.402344 106.53125 84.113281 107.210938 84.113281 108.070312 C 84.113281 109.34375 84.734375 110.246094 85.625 110.246094 C 86.644531 110.234375 87.164062 109.519531 87.164062 108.125 C 87.164062 106.730469 86.632812 106.003906 85.636719 106.003906 C 85.425781 106.003906 85.082031 106.109375 84.894531 106.226562 Z M 84.894531 106.226562 "/>
<path style=" stroke:none;fill-rule:nonzero;fill:rgb(0%,0%,0%);fill-opacity:1;" d="M 110.035156 106.136719 C 109.320312 106.414062 108.949219 107.515625 109.132812 108.75 C 109.253906 109.609375 109.875 110.246094 110.566406 110.246094 C 111.214844 110.246094 111.785156 109.929688 112.050781 109.4375 C 112.316406 108.90625 112.332031 107.542969 112.066406 106.90625 C 111.746094 106.148438 110.84375 105.804688 110.035156 106.136719 Z M 110.035156 106.136719 "/>
</g>
</svg>
